<?xml version="1.0" encoding="iso-8859-1"?>
<!-- Generator: Adobe Illustrator 18.0.0, SVG Export Plug-In . SVG Version: 6.00 Build 0)  -->
<!DOCTYPE svg PUBLIC "-//W3C//DTD SVG 1.1//EN" "http://www.w3.org/Graphics/SVG/1.1/DTD/svg11.dtd">
<svg version="1.1" id="Capa_1" xmlns="http://www.w3.org/2000/svg" xmlns:xlink="http://www.w3.org/1999/xlink" x="0px" y="0px"
	 viewBox="0 0 59.978 59.978" style="enable-background:new 0 0 59.978 59.978;" xml:space="preserve">
<path d="M52.919,16.003c-3.679-3.679-8.57-5.705-13.772-5.705c-5.203,0-10.095,2.026-13.773,5.705
	c-2.981,2.981-4.623,6.944-4.623,11.16c0,4.215,1.642,8.179,4.623,11.16c2.422,2.423,5.644,3.757,9.069,3.757
	s6.646-1.334,9.069-3.757c4.078-4.079,4.078-10.715,0-14.794c-3.342-3.341-8.776-3.341-12.118,0c-2.75,2.751-2.75,7.227,0,9.978
	c2.28,2.279,5.986,2.278,8.265,0c0.391-0.391,0.391-1.023,0-1.414c-0.391-0.391-1.023-0.391-1.414,0c-1.498,1.498-3.937,1.5-5.437,0
	c-1.971-1.971-1.971-5.178,0-7.149c2.562-2.56,6.729-2.561,9.29,0c3.299,3.299,3.299,8.667,0,11.966
	c-2.045,2.045-4.764,3.171-7.655,3.171s-5.61-1.126-7.655-3.171c-2.604-2.604-4.037-6.064-4.037-9.746
	c0-3.682,1.434-7.143,4.037-9.746c3.301-3.301,7.69-5.119,12.359-5.119c4.668,0,9.058,1.818,12.358,5.119
	c4.174,4.174,6.473,9.723,6.473,15.625c0,5.903-2.299,11.452-6.473,15.626c-5.299,5.298-12.329,8.21-19.813,8.21
	c-0.054,0-0.107,0-0.161,0c-7.401-0.041-14.304-2.954-19.437-8.202C-0.035,36.272-1.41,16.505,8.899,2.697
	c0.33-0.442,0.239-1.069-0.203-1.399C8.252,0.967,7.626,1.058,7.295,1.5c-10.891,14.59-9.442,35.472,3.37,48.575
	c5.509,5.633,12.916,8.76,20.855,8.804c0.058,0,0.114,0,0.172,0c8.018,0,15.551-3.12,21.227-8.796
	c4.552-4.552,7.059-10.603,7.059-17.04C59.978,26.606,57.471,20.555,52.919,16.003z"/>
<g>
</g>
<g>
</g>
<g>
</g>
<g>
</g>
<g>
</g>
<g>
</g>
<g>
</g>
<g>
</g>
<g>
</g>
<g>
</g>
<g>
</g>
<g>
</g>
<g>
</g>
<g>
</g>
<g>
</g>
</svg>
