<?xml version="1.0" encoding="iso-8859-1"?>
<!-- Generator: Adobe Illustrator 19.0.0, SVG Export Plug-In . SVG Version: 6.00 Build 0)  -->
<svg version="1.1" id="Capa_1" xmlns="http://www.w3.org/2000/svg" xmlns:xlink="http://www.w3.org/1999/xlink" x="0px" y="0px"
	 viewBox="0 0 512 512" style="enable-background:new 0 0 512 512;" xml:space="preserve">
<path style="fill:#FEDE93;" d="M335.297,272.741c-0.148-61.693-25.267-116.869-64.668-153.436c-2.586-2.411-5.244-4.739-7.953-6.974
	c-3.874-3.194-9.447-3.204-13.31,0c-41.228,34.079-68.93,87.514-72.319,148.336c-0.227,3.992-0.333,8.024-0.343,12.074H335.297z"/>
<path style="fill:#FDB659;" d="M335.297,272.741c-0.148-61.693-25.267-116.869-64.668-153.436
	c6.099,39.312,2.4,101.896-71.917,130.432c-9.096,3.492-16.225,7.149-21.665,10.93c-0.227,3.992-0.333,8.024-0.343,12.074H335.297z"
	/>
<g>
	<path style="fill:#008b31;" d="M255.993,372.351c-23.317-4.151-48.664,3.122-67.155,21.613
		c-16.231,16.231-23.819,37.746-22.623,58.534c0.297,5.165,4.466,9.334,9.63,9.632c20.788,1.2,42.304-6.372,58.545-22.613
		C252.892,421.015,260.143,395.668,255.993,372.351z"/>
	<path style="fill:#008b31;" d="M255.993,372.351c-4.151,23.317,3.122,48.664,21.613,67.155
		c16.231,16.231,37.746,23.819,58.534,22.623c5.165-0.297,9.334-4.466,9.632-9.63c1.2-20.788-6.372-42.304-22.613-58.545
		C304.657,375.452,279.31,368.2,255.993,372.351z"/>
</g>
<path style="fill:#00c244;" d="M255.993,372.351c-19.423,13.553-32.203,36.619-32.203,62.768c0,22.955,9.848,43.533,25.393,57.386
	c3.862,3.442,9.758,3.442,13.62,0.001c15.548-13.85,25.408-34.419,25.408-57.388C288.211,408.954,275.415,385.904,255.993,372.351z"
	/>
<g>
	<path style="fill:#FEDE93;" d="M185.37,75.259c-0.007,0-0.014,0-0.021,0c-4.268-0.012-7.717-3.48-7.705-7.748l0.013-4.777
		c0.012-4.26,3.469-7.705,7.726-7.705c0.007,0,0.014,0,0.021,0c4.268,0.012,7.717,3.48,7.705,7.748l-0.013,4.777
		C193.084,71.814,189.628,75.259,185.37,75.259z"/>
	<path style="fill:#FEDE93;" d="M185.277,106.792c-0.007,0-0.015,0-0.023,0c-4.267-0.013-7.715-3.482-7.703-7.749l0.014-4.776
		c0.013-4.26,3.47-7.704,7.726-7.704c0.007,0,0.015,0,0.023,0c4.267,0.013,7.715,3.482,7.703,7.749l-0.014,4.776
		C192.991,103.348,189.534,106.792,185.277,106.792z"/>
	<path style="fill:#FEDE93;" d="M203.486,88.69c-0.007,0-0.014,0-0.022,0l-4.777-0.014c-4.267-0.012-7.716-3.481-7.704-7.749
		c0.012-4.26,3.469-7.704,7.726-7.704c0.007,0,0.014,0,0.022,0l4.777,0.014c4.267,0.012,7.716,3.481,7.704,7.749
		C211.2,85.245,207.743,88.69,203.486,88.69z"/>
	<path style="fill:#FEDE93;" d="M171.952,88.599c-0.007,0-0.015,0-0.023,0l-4.777-0.014c-4.267-0.013-7.715-3.482-7.703-7.749
		c0.013-4.26,3.47-7.704,7.726-7.704c0.007,0,0.015,0,0.023,0l4.777,0.014c4.267,0.013,7.715,3.482,7.703,7.749
		C179.666,85.154,176.209,88.599,171.952,88.599z"/>
	<path style="fill:#FEDE93;" d="M326.708,75.259c-0.007,0-0.015,0-0.023,0c-4.267-0.013-7.715-3.482-7.703-7.749l0.014-4.777
		c0.013-4.26,3.47-7.704,7.726-7.704c0.007,0,0.015,0,0.023,0c4.267,0.013,7.715,3.482,7.703,7.749l-0.014,4.777
		C334.422,71.815,330.965,75.259,326.708,75.259z"/>
	<path style="fill:#FEDE93;" d="M326.617,106.792c-0.007,0-0.014,0-0.021,0c-4.268-0.012-7.717-3.48-7.705-7.748l0.013-4.776
		c0.012-4.267,3.457-7.721,7.747-7.705c4.268,0.012,7.717,3.48,7.705,7.748l-0.013,4.776
		C334.331,103.347,330.874,106.792,326.617,106.792z"/>
	<path style="fill:#FEDE93;" d="M344.824,88.69c-0.007,0-0.014,0-0.022,0l-4.777-0.014c-4.267-0.012-7.716-3.481-7.704-7.749
		c0.012-4.26,3.469-7.704,7.726-7.704c0.007,0,0.014,0,0.022,0l4.777,0.014c4.267,0.012,7.716,3.481,7.704,7.749
		C352.539,85.245,349.082,88.69,344.824,88.69z"/>
	<path style="fill:#FEDE93;" d="M313.291,88.599c-0.007,0-0.015,0-0.023,0l-4.777-0.014c-4.267-0.013-7.715-3.482-7.703-7.749
		c0.013-4.26,3.47-7.704,7.726-7.704c0.007,0,0.015,0,0.023,0l4.777,0.014c4.267,0.013,7.715,3.482,7.703,7.749
		C321.004,85.154,317.547,88.599,313.291,88.599z"/>
</g>
<path style="fill:#FD6096;" d="M415.296,213.034c-6.591,20.353-16.368,40.727-29.362,60.177
	c-29.943,44.806-70.992,75.735-112.186,88.74c-7.577,2.398-15.153,4.183-22.668,5.335c-4.401-17.966-5.49-37.717-3.228-58.184
	c2.024-18.443,6.777-37.478,14.271-56.347c6.196-15.61,14.281-31.116,24.276-46.062c32.934-49.276,79.269-81.717,124.446-92.066
	c5.853-1.341,11.585,2.547,12.582,8.468C428.083,150.738,425.423,181.861,415.296,213.034z"/>
<g>
	<path style="fill:#FC3E81;" d="M273.748,361.951c-7.577,2.398-15.153,4.183-22.668,5.335c-4.401-17.966-5.49-37.717-3.228-58.184
		c2.024-18.443,6.777-37.478,14.271-56.347c6.819,18.122,11.344,36.658,13.368,55.102
		C277.588,326.745,276.997,344.908,273.748,361.951z"/>
	<path style="fill:#FC3E81;" d="M415.296,213.034c-6.591,20.353-16.368,40.727-29.362,60.177
		c-35.454,53.047-86.467,86.643-134.853,94.075c-4.401-17.966-5.49-37.717-3.228-58.184c2.833,3.581,5.542,7.224,8.147,10.929
		c19.564-27.836,45.75-52.476,76.586-71.936C358.658,231.643,386.92,219.749,415.296,213.034z"/>
</g>
<path style="fill:#FD6096;" d="M260.92,367.285c-48.386-7.431-99.399-41.028-134.853-94.075
	c-12.994-19.45-22.771-39.824-29.362-60.177c-10.127-31.173-12.787-62.296-8.132-89.939c0.997-5.921,6.729-9.809,12.582-8.468
	c45.177,10.349,91.512,42.79,124.446,92.066c22.055,33.015,34.842,68.698,38.547,102.409
	C266.41,329.568,265.32,349.319,260.92,367.285z"/>
<path style="fill:#FC3E81;" d="M260.92,367.285c-48.386-7.431-99.399-41.028-134.853-94.075
	c-12.994-19.45-22.771-39.824-29.362-60.177c28.376,6.715,56.638,18.609,82.71,35.06c30.836,19.46,57.022,44.1,76.586,71.936
	c2.605-3.705,5.314-7.348,8.147-10.929C266.41,329.568,265.32,349.319,260.92,367.285z"/>
<path style="fill:#FD82AC;" d="M511.681,234.356c-12.29,49.016-48.975,98.753-103.678,133.265
	c-45.081,28.443-94.21,41.382-137.828,39.446c-4.79-0.206-9.529-0.598-14.175-1.164c-4.646,0.567-9.385,0.958-14.175,1.164
	c-43.618,1.937-92.748-11.002-137.828-39.446C49.293,333.109,12.609,283.372,0.319,234.356c-1.453-5.8,2.204-11.6,8.066-12.785
	c49.531-10.013,110.199,1.638,164.932,36.18c31.318,19.749,56.67,44.473,74.956,71.196c1.257,1.834,2.483,3.667,3.668,5.522
	c0.014,0.022,0.028,0.043,0.042,0.065c1.888,2.932,6.146,2.932,8.034,0c0.014-0.022,0.028-0.043,0.042-0.065
	c1.185-1.854,2.411-3.688,3.668-5.522c18.286-26.723,43.639-51.447,74.956-71.196c54.734-34.542,115.401-46.193,164.932-36.18
	C509.477,222.756,513.134,228.556,511.681,234.356z"/>
<g>
	<path style="fill:#FD6096;" d="M328.535,374.008l-58.36,33.059c-4.79-0.206-9.529-0.598-14.175-1.164
		c-4.646,0.567-9.385,0.958-14.175,1.164l-58.36-33.059c-3.709-2.102-5.017-6.81-2.916-10.529c2.102-3.709,6.82-5.017,10.539-2.915
		l57.186,32.399v-12.599c0-4.275,3.461-7.726,7.726-7.726c4.265,0,7.726,3.451,7.726,7.726v12.599l57.186-32.399
		c3.719-2.102,8.437-0.793,10.539,2.915C333.552,367.198,332.244,371.906,328.535,374.008z"/>
	<path style="fill:#FD6096;" d="M263.726,328.947v29.02c0,4.275-3.461,7.726-7.726,7.726c-4.265,0-7.726-3.451-7.726-7.726v-29.02
		c1.257,1.834,2.483,3.667,3.668,5.522c0.014,0.022,0.028,0.043,0.042,0.065c1.888,2.932,6.146,2.932,8.034,0
		c0.014-0.022,0.028-0.043,0.042-0.065C261.244,332.615,262.47,330.781,263.726,328.947z"/>
</g>
<g>
	<path style="fill:#FD82AC;" d="M256.039,37.142c-0.007,0-0.014,0-0.021,0c-4.268-0.012-7.717-3.48-7.705-7.748l0.013-4.777
		c0.012-4.26,3.469-7.705,7.726-7.705c0.007,0,0.014,0,0.021,0c4.268,0.012,7.717,3.48,7.705,7.748l-0.013,4.777
		C263.754,33.697,260.297,37.142,256.039,37.142z"/>
	<path style="fill:#FD82AC;" d="M255.948,68.676c-0.007,0-0.014,0-0.021,0c-4.268-0.012-7.717-3.48-7.705-7.748l0.013-4.776
		c0.012-4.267,3.454-7.681,7.748-7.705c4.268,0.012,7.717,3.48,7.705,7.748l-0.013,4.776
		C263.662,65.23,260.205,68.676,255.948,68.676z"/>
	<path style="fill:#FD82AC;" d="M274.155,50.573c-0.007,0-0.014,0-0.022,0l-4.777-0.014c-4.267-0.012-7.716-3.481-7.704-7.749
		c0.012-4.26,3.469-7.704,7.726-7.704c0.007,0,0.014,0,0.022,0l4.777,0.014c4.267,0.012,7.716,3.481,7.704,7.749
		C281.869,47.129,278.413,50.573,274.155,50.573z"/>
	<path style="fill:#FD82AC;" d="M242.622,50.482c-0.007,0-0.015,0-0.023,0l-4.777-0.014c-4.267-0.013-7.715-3.482-7.703-7.749
		c0.013-4.26,3.47-7.704,7.726-7.704c0.007,0,0.015,0,0.023,0l4.777,0.014c4.267,0.013,7.715,3.482,7.703,7.749
		C250.335,47.038,246.878,50.482,242.622,50.482z"/>
</g>
<g>
</g>
<g>
</g>
<g>
</g>
<g>
</g>
<g>
</g>
<g>
</g>
<g>
</g>
<g>
</g>
<g>
</g>
<g>
</g>
<g>
</g>
<g>
</g>
<g>
</g>
<g>
</g>
<g>
</g>
</svg>
